<mxfile host="app.diagrams.net" modified="2023-10-12T03:57:27.482Z" agent="Mozilla/5.0 (Windows NT 10.0; Win64; x64) AppleWebKit/537.36 (KHTML, like Gecko) Chrome/117.0.0.0 Safari/537.36" version="22.0.4" etag="Q8yVIM-NhhoQMc3tBx8L" type="github">
  <diagram name="Trang-1" id="Dytu22fN1VD10oCp0d1P">
    <mxGraphModel>
      <root>
        <mxCell id="0" />
        <mxCell id="1" parent="0" />
      </root>
    </mxGraphModel>
  </diagram>
</mxfile>
